<svg version="1.1" id="Layer_1" xmlns="http://www.w3.org/2000/svg" xmlns:xlink="http://www.w3.org/1999/xlink" x="0px" y="0px"
	 width="100%" viewBox="0 0 94 94" enable-background="new 0 0 94 94" xml:space="preserve">
<path fill="#000000" opacity="1.000000" stroke="none" 
	d="
M95.000000,27.999992 
	C95.000000,50.666656 95.000000,72.833313 95.000000,94.999985 
	C63.666683,94.999985 32.333366,94.999985 1.000039,94.999992 
	C1.000026,63.666695 1.000026,32.333385 1.000013,1.000060 
	C32.333298,1.000040 63.666595,1.000040 94.999947,1.000020 
	C95.000000,9.833329 95.000000,18.666658 95.000000,27.999992 
M90.001167,47.457691 
	C90.015846,47.290524 90.030525,47.123352 90.112228,46.443577 
	C90.074150,46.275517 90.036079,46.107456 89.977806,45.334061 
	C89.680450,44.866322 89.383087,44.398582 89.015785,43.341862 
	C88.718170,42.881042 88.420555,42.420223 88.151291,41.839405 
	C88.151291,41.839405 88.058487,41.758217 88.084053,41.083874 
	C87.422073,40.358135 86.760094,39.632397 85.957466,38.428761 
	C85.770782,38.117302 85.496193,37.950920 84.841843,37.325882 
	C83.620407,36.210709 82.398979,35.095531 81.020164,33.126068 
	C80.694138,30.726658 80.368103,28.327248 79.896004,25.481344 
	C79.721642,25.193226 79.467331,25.028889 78.948700,24.508881 
	C78.675140,24.317253 78.401581,24.125628 78.020752,23.321484 
	C77.712883,22.824974 77.405006,22.328465 77.041283,21.391697 
	C77.041283,21.391697 76.861916,20.985781 76.964653,20.125420 
	C76.662857,17.706026 76.361061,15.286631 75.974670,12.447190 
	C75.974670,12.447190 75.827286,12.044858 75.933807,11.491002 
	C75.633751,11.285381 75.333687,11.079761 74.854736,10.331040 
	C74.263870,9.866941 73.673004,9.402843 73.008606,8.310411 
	C72.671082,7.925221 72.333549,7.540032 71.498955,7.020525 
	C71.332642,7.062929 71.166336,7.105333 70.537750,6.997250 
	C70.537750,6.997250 70.061508,6.899662 69.604858,6.160634 
	C55.083878,6.163234 40.562897,6.165833 25.425114,6.010442 
	C24.938055,6.300816 24.450996,6.591190 23.309530,7.156768 
	C21.658171,9.274856 17.101292,9.625940 19.010740,14.881666 
	C18.984226,17.556839 18.957714,20.232010 18.306995,23.019241 
	C17.494146,23.627642 16.681297,24.236042 15.317206,25.398367 
	C15.190630,28.071379 15.064054,30.744392 14.863635,33.540710 
	C14.863635,33.540710 14.904630,33.678467 14.303237,33.937897 
	C13.543992,34.607296 12.784747,35.276695 11.374928,35.998203 
	C10.909701,36.327423 10.444475,36.656643 9.433295,37.138344 
	C9.494035,37.965008 9.554773,38.791676 9.183227,40.238285 
	C9.243006,40.483017 9.302786,40.727745 8.851075,40.437038 
	C7.952264,41.947445 7.053452,43.457851 6.019829,45.693981 
	C6.074454,46.424377 6.129078,47.154778 6.099922,48.400131 
	C6.121690,48.572674 6.143458,48.745220 6.082342,49.593369 
	C6.124477,50.044666 6.166613,50.495968 6.235481,51.492748 
	C6.436245,51.789349 6.637009,52.085945 6.944910,52.952618 
	C7.359680,53.334671 7.774450,53.716724 8.172965,54.661694 
	C8.257862,54.829113 8.342758,54.996536 8.281124,56.035419 
	C8.219592,61.646343 8.158060,67.257271 8.010641,73.611084 
	C8.235369,74.787560 8.460096,75.964027 8.815051,77.927521 
	C9.825574,79.947800 10.478993,82.293465 11.943203,83.900345 
	C13.529233,85.640915 15.871195,86.692665 17.936951,88.518944 
	C18.280645,88.637672 18.624340,88.756393 19.525343,88.871391 
	C19.706266,88.913582 19.887188,88.955765 20.461353,89.764572 
	C38.605659,89.815384 56.749966,89.866196 75.607124,89.968727 
	C76.738510,89.313347 77.869896,88.657967 79.441170,87.794891 
	C79.718292,87.601227 79.905617,87.342537 80.715446,87.010513 
	C83.482178,86.492455 85.863281,85.641525 85.737503,81.924446 
	C86.428635,81.189072 87.834000,80.241783 87.689384,79.754387 
	C87.000404,77.432304 85.890083,75.235229 85.059158,72.324821 
	C85.366516,71.725067 85.673882,71.125313 86.440331,70.303040 
	C86.475533,69.975143 86.510742,69.647247 87.282722,68.991173 
	C87.422905,65.538902 87.563095,62.086628 87.796211,57.866089 
	C87.847710,56.581257 87.899208,55.296425 88.685829,53.869301 
	C89.075912,52.549202 89.466003,51.229107 89.957176,49.259579 
	C89.935326,48.822742 89.913467,48.385910 90.001167,47.457691 
z"/>
<path fill="#4D4C51" opacity="1.000000" stroke="none" 
	d="
M20.068108,88.997940 
	C19.887188,88.955765 19.706266,88.913582 19.117157,88.676956 
	C18.482508,88.244858 18.207342,88.098953 17.883480,88.044823 
	C15.871195,86.692665 13.529233,85.640915 11.943203,83.900345 
	C10.478993,82.293465 9.825574,79.947800 9.021458,77.395348 
	C9.488379,76.567261 9.748894,76.271347 10.316822,75.933182 
	C11.105552,75.545830 11.586867,75.200729 12.280600,74.914520 
	C12.493018,74.973404 12.921247,74.868622 13.257418,75.028366 
	C16.606815,79.039864 20.832893,78.354469 25.358086,78.391586 
	C30.178617,78.489014 34.554359,78.408890 39.378124,78.485413 
	C44.356869,78.536903 48.887592,78.431740 53.730888,78.323044 
	C54.877186,78.326935 55.710907,78.334366 56.958748,78.482986 
	C62.192120,78.691948 67.045906,79.134262 71.818321,78.694191 
	C74.934875,78.406822 77.933372,76.839088 81.130775,76.204330 
	C82.664452,78.286201 80.767960,82.268906 85.028107,82.014328 
	C85.863281,85.641525 83.482178,86.492455 80.286407,86.673599 
	C78.555916,86.282455 77.254471,86.228233 75.489914,86.140953 
	C58.377216,86.104362 41.727516,86.071838 25.078161,86.133430 
	C22.962673,86.141258 20.032259,85.244850 19.996971,89.034897 
	C19.998611,89.000168 20.068108,88.997940 20.068108,88.997940 
z"/>
<path fill="#999CA4" opacity="1.000000" stroke="none" 
	d="
M81.177544,33.980358 
	C82.398979,35.095531 83.620407,36.210709 84.714203,37.856358 
	C84.317741,39.039162 84.048912,39.691490 83.537598,40.553787 
	C83.236107,41.865231 83.177101,42.966705 83.082268,44.478882 
	C83.133781,45.981171 83.221123,47.072758 83.290573,48.408295 
	C83.369110,49.116703 83.465515,49.581165 83.499603,50.429077 
	C83.635597,51.822140 83.833916,52.831749 84.019623,54.149681 
	C83.962273,54.658802 83.917519,54.859600 83.636955,55.011623 
	C83.401154,54.962852 82.919617,54.972046 82.567917,55.038280 
	C81.126648,56.963428 79.718597,58.711193 79.021996,60.707249 
	C77.971634,63.716976 76.359497,65.446533 72.876785,64.711838 
	C71.828529,63.278080 70.912895,62.138676 69.945694,60.619869 
	C69.894135,56.378849 69.894135,52.517231 69.894135,49.087898 
	C71.967400,48.052380 73.985100,47.044613 76.177582,45.700386 
	C76.888351,42.581249 77.424347,39.798573 77.982697,36.736656 
	C77.958717,36.276688 77.912392,36.095955 77.839691,35.544449 
	C77.879616,34.690224 77.945908,34.206779 78.233566,33.735176 
	C78.454941,33.747021 78.898254,33.754803 79.025192,33.984123 
	C79.397118,34.440834 79.642090,34.668224 80.177139,34.883446 
	C80.703987,34.574303 80.940765,34.277332 81.177544,33.980358 
z"/>
<path fill="#C0C1C6" opacity="1.000000" stroke="none" 
	d="
M12.025502,35.946095 
	C12.784747,35.276695 13.543992,34.607296 14.918913,33.842842 
	C15.989389,34.154030 16.444193,34.560280 16.998821,35.206059 
	C17.375780,35.619862 17.652912,35.794136 18.015179,36.239449 
	C18.408396,36.984764 18.716475,37.459049 19.014856,38.370686 
	C19.008200,46.579632 19.401165,46.981052 27.036617,46.999905 
	C28.684601,47.003975 30.332600,47.002228 31.989456,47.249840 
	C31.998320,47.496517 32.005436,47.990135 31.957647,48.344452 
	C27.655655,58.778084 20.767323,60.612408 11.702174,54.024639 
	C11.494350,54.024658 11.078793,54.033329 11.069405,53.656151 
	C11.378263,51.868919 11.696509,50.458862 12.224543,48.892132 
	C12.524476,48.236195 12.614621,47.736931 12.803316,46.843712 
	C12.901478,45.641068 12.901090,44.832386 12.938420,43.769508 
	C12.983573,43.344162 12.991006,43.173004 12.969311,42.650002 
	C12.555153,41.738144 12.170124,41.178139 11.835928,40.458572 
	C11.886760,40.299011 12.013369,39.988937 12.177396,39.898018 
	C12.201143,39.539932 12.060863,39.272770 11.953677,39.022202 
	C11.986771,39.038799 11.948722,39.102318 11.964078,38.784958 
	C11.976892,38.255798 11.974349,38.043999 11.960794,37.517815 
	C11.975022,36.784325 12.000262,36.365208 12.025502,35.946095 
z"/>
<path fill="#59DEEE" opacity="1.000000" stroke="none" 
	d="
M70.061508,6.899662 
	C70.061508,6.899662 70.537750,6.997250 70.800911,7.347483 
	C71.376312,8.128011 71.688553,8.558306 72.012085,8.994874 
	C72.023376,9.001148 72.049385,8.996887 71.767944,9.272606 
	C65.323593,10.022964 59.160694,10.497603 52.530422,10.969103 
	C46.709980,10.967730 41.356911,10.969496 35.627850,10.804670 
	C32.808239,10.424088 30.328787,10.393363 27.934824,9.925348 
	C26.563475,9.657251 25.331047,8.678545 24.331406,7.978526 
	C25.098446,7.604678 25.570152,7.272067 26.507248,6.965935 
	C41.335594,6.961496 55.698551,6.930579 70.061508,6.899662 
z"/>
<path fill="#43EFFA" opacity="1.000000" stroke="none" 
	d="
M24.036076,8.019762 
	C25.331047,8.678545 26.563475,9.657251 27.934824,9.925348 
	C30.328787,10.393363 32.808239,10.424088 35.626453,11.183464 
	C36.000595,12.484813 36.000145,13.240777 35.688946,14.050966 
	C34.912407,14.724409 34.446621,15.343626 33.991753,15.983913 
	C34.002670,16.004984 34.022469,16.048120 33.644638,16.022808 
	C32.510284,16.001308 31.753757,16.005121 30.607246,16.002380 
	C29.436277,15.978864 28.655293,15.961905 27.543354,15.904182 
	C25.154057,15.207728 23.095711,14.552038 20.722530,13.903818 
	C19.988779,13.939130 19.569864,13.966971 19.150948,13.994814 
	C17.101292,9.625940 21.658171,9.274856 23.653069,7.303834 
	C24.009762,7.640522 24.022919,7.830142 24.036076,8.019762 
z"/>
<path fill="#FEFEFC" opacity="1.000000" stroke="none" 
	d="
M11.078793,54.033329 
	C11.078793,54.033329 11.494350,54.024658 11.738122,54.466949 
	C12.041738,57.286228 12.101583,59.663219 12.117408,62.490730 
	C12.356009,66.917046 12.638628,70.892830 12.921247,74.868622 
	C12.921247,74.868622 12.493018,74.973404 12.150097,74.633713 
	C11.208409,74.182854 10.609643,74.071686 9.933452,73.658142 
	C9.269526,73.193245 8.683026,73.030724 8.096527,72.868195 
	C8.158060,67.257271 8.219592,61.646343 8.486063,55.676998 
	C8.691001,55.318577 8.900424,55.096298 8.960047,55.139420 
	C9.019670,55.182537 8.933344,55.301720 9.061807,55.421024 
	C9.462140,55.387371 9.734011,55.234413 10.184039,54.906036 
	C10.601062,54.498184 10.839927,54.265759 11.078793,54.033329 
z"/>
<path fill="#4E87D2" opacity="1.000000" stroke="none" 
	d="
M19.024555,37.933334 
	C18.716475,37.459049 18.408396,36.984764 18.023170,35.792442 
	C17.604227,32.094364 17.262428,29.114321 16.716316,26.146818 
	C16.512001,26.159359 16.103279,26.135826 16.020151,25.817421 
	C15.914166,25.280825 15.891308,25.062635 15.868448,24.844444 
	C16.681297,24.236042 17.494146,23.627642 18.824493,22.905996 
	C19.638424,22.728657 19.866894,22.567915 20.262882,22.317764 
	C20.498367,22.324999 20.968004,22.357758 21.135040,22.596111 
	C21.575562,23.546457 21.849047,24.258450 22.106579,25.292473 
	C22.439590,26.385532 22.788559,27.156561 22.999626,28.218245 
	C23.247034,29.985126 23.632343,31.461353 23.705856,33.131435 
	C22.906231,34.915863 22.418400,36.506439 21.567942,38.066044 
	C20.478395,38.001160 19.751474,37.967247 19.024555,37.933334 
z"/>
<path fill="#7F7F7F" opacity="1.000000" stroke="none" 
	d="
M74.894272,89.917007 
	C56.749966,89.866196 38.605659,89.815384 20.264730,89.381256 
	C20.068108,88.997940 19.998611,89.000168 20.455425,88.925323 
	C38.951866,88.855392 56.991497,88.860306 75.000244,89.128601 
	C74.944328,89.566994 74.919296,89.741997 74.894272,89.917007 
z"/>
<path fill="#00FEFF" opacity="1.000000" stroke="none" 
	d="
M69.833183,6.530148 
	C55.698551,6.930579 41.335594,6.961496 26.506559,6.773353 
	C26.040480,6.554292 26.041916,6.168433 26.041916,6.168433 
	C40.562897,6.165833 55.083878,6.163234 69.833183,6.530148 
z"/>
<path fill="#5E5C5E" opacity="1.000000" stroke="none" 
	d="
M85.382805,81.969391 
	C80.767960,82.268906 82.664452,78.286201 81.261276,75.945320 
	C81.827911,74.549339 82.410065,73.771835 83.296158,72.974945 
	C83.801819,72.932541 84.003540,72.909515 84.391045,72.881668 
	C84.576828,72.876854 84.929680,72.993675 84.929680,72.993675 
	C85.890083,75.235229 87.000404,77.432304 87.689384,79.754387 
	C87.834000,80.241783 86.428635,81.189072 85.382805,81.969391 
z"/>
<path fill="#E3E1EA" opacity="1.000000" stroke="none" 
	d="
M84.994415,72.659248 
	C84.929680,72.993675 84.576828,72.876854 84.334137,72.424484 
	C84.018547,66.334877 83.945648,60.697636 83.872757,55.060394 
	C83.917519,54.859600 83.962273,54.658802 84.356903,54.182564 
	C85.514755,53.923828 86.322746,53.940536 87.336136,53.964577 
	C87.541550,53.971912 87.950706,54.011593 87.950706,54.011593 
	C87.899208,55.296425 87.847710,56.581257 87.503113,58.116814 
	C87.023460,58.346916 86.836906,58.326294 86.431763,58.233688 
	C85.852188,58.798534 85.491203,59.435352 85.099579,60.494179 
	C85.080772,62.604778 85.092598,64.293381 85.076202,66.459305 
	C85.359077,68.132942 85.670166,69.329247 85.981247,70.525558 
	C85.673882,71.125313 85.366516,71.725067 84.994415,72.659248 
z"/>
<path fill="#407DCE" opacity="1.000000" stroke="none" 
	d="
M6.154641,44.968262 
	C7.053452,43.457851 7.952264,41.947445 9.473039,40.700447 
	C10.338091,40.977436 10.581181,40.991016 11.022787,41.237984 
	C11.521397,41.969452 11.821488,42.467533 12.106403,43.204529 
	C12.091227,43.443443 12.141979,43.918861 12.104416,44.295418 
	C12.027709,45.425457 11.988567,46.178944 11.609589,46.938141 
	C10.208572,46.609398 9.147394,46.274944 7.952182,45.746071 
	C7.604118,45.306850 7.339551,45.144302 6.807212,45.038101 
	C6.589978,45.012199 6.154642,44.968262 6.154641,44.968262 
z"/>
<path fill="#0A1334" opacity="1.000000" stroke="none" 
	d="
M11.069404,53.656151 
	C10.839927,54.265759 10.601062,54.498184 9.901517,54.891186 
	C9.271673,55.135078 9.102509,55.218399 8.933344,55.301720 
	C8.933344,55.301720 9.019670,55.182537 8.938176,54.917877 
	C8.719584,54.365612 8.497095,54.180801 8.189220,54.098782 
	C7.774450,53.716724 7.359680,53.334671 7.108433,52.550674 
	C7.485488,51.752079 7.699021,51.355423 7.942825,50.683884 
	C8.024601,50.044056 8.076105,49.679119 8.139957,49.245064 
	C8.152308,49.175953 8.079366,49.061398 8.471897,49.076485 
	C9.914538,49.077320 10.964646,49.063065 12.014755,49.048805 
	C11.696509,50.458862 11.378263,51.868919 11.069404,53.656151 
z"/>
<path fill="#4874C3" opacity="1.000000" stroke="none" 
	d="
M89.085732,43.930840 
	C89.383087,44.398582 89.680450,44.866322 89.657242,45.797123 
	C88.608276,46.266224 87.879875,46.272266 86.962006,45.984131 
	C86.115303,44.790310 85.458069,43.890667 84.772453,42.862976 
	C84.744072,42.734932 84.683731,42.479664 84.935303,42.191002 
	C85.555420,41.552784 85.923965,41.203224 86.502739,40.991692 
	C87.161476,41.339218 87.609978,41.548717 88.058487,41.758217 
	C88.058487,41.758217 88.151291,41.839405 88.110451,42.199188 
	C88.408318,43.016262 88.747025,43.473549 89.085732,43.930840 
z"/>
<path fill="#55A5AA" opacity="1.000000" stroke="none" 
	d="
M86.650345,58.305668 
	C86.836906,58.326294 87.023460,58.346916 87.456650,58.500946 
	C87.563095,62.086628 87.422905,65.538902 86.755386,68.734131 
	C86.118317,67.578560 86.008583,66.680038 85.954178,65.605507 
	C86.009514,65.429497 86.076675,65.066658 86.337067,64.799034 
	C86.712196,63.039452 86.826942,61.547489 86.929077,59.608040 
	C86.827766,58.875584 86.739052,58.590626 86.650345,58.305668 
z"/>
<path fill="#0C1B51" opacity="1.000000" stroke="none" 
	d="
M88.318268,53.940445 
	C87.950706,54.011593 87.541550,53.971912 87.299637,53.563244 
	C87.020012,51.809978 86.982292,50.465378 87.265419,49.101257 
	C88.014641,49.070374 88.443024,49.059017 89.002708,49.227917 
	C89.326126,49.645187 89.566818,49.812134 89.856094,49.909012 
	C89.466003,51.229107 89.075912,52.549202 88.318268,53.940445 
z"/>
<path fill="#423F43" opacity="1.000000" stroke="none" 
	d="
M75.953018,86.174011 
	C77.254471,86.228233 78.555916,86.282455 79.930260,86.677750 
	C79.905617,87.342537 79.718292,87.601227 78.867493,87.890976 
	C77.586258,87.989517 76.878693,87.991982 76.131088,87.690361 
	C76.045036,86.982185 75.999023,86.578102 75.953018,86.174011 
z"/>
<path fill="#296DC2" opacity="1.000000" stroke="none" 
	d="
M78.128021,23.934002 
	C78.401581,24.125628 78.675140,24.317253 78.960869,25.163498 
	C78.795998,26.352913 78.618958,26.887707 78.422188,27.440887 
	C78.402458,27.459274 78.389732,27.504908 78.290443,27.962511 
	C78.091965,29.987930 77.992767,31.555746 77.643478,32.800400 
	C77.200081,29.672546 77.006775,26.867853 77.142120,24.030954 
	C77.689850,23.977167 77.908936,23.955584 78.128021,23.934002 
z"/>
<path fill="#3CD9F4" opacity="1.000000" stroke="none" 
	d="
M20.027399,22.310530 
	C19.866894,22.567915 19.638424,22.728657 19.136597,22.849968 
	C18.957714,20.232010 18.984226,17.556839 19.080845,14.438240 
	C19.569864,13.966971 19.988779,13.939130 20.743622,14.265490 
	C21.113651,15.100142 21.147755,15.580593 21.135860,16.065374 
	C21.089865,16.069704 21.006464,16.035482 20.699987,16.286348 
	C20.271473,18.461653 20.149435,20.386091 20.027399,22.310530 
z"/>
<path fill="#3B39BB" opacity="1.000000" stroke="none" 
	d="
M78.441917,27.422501 
	C78.618958,26.887707 78.795998,26.352913 79.053055,25.403225 
	C79.467331,25.028889 79.721642,25.193226 79.955688,26.156536 
	C79.972610,29.519690 79.929840,32.207653 79.887070,34.895615 
	C79.642090,34.668224 79.397118,34.440834 79.064423,33.532467 
	C78.808838,31.050276 78.640961,29.249060 78.481888,27.423412 
	C78.490692,27.398981 78.441917,27.422503 78.441917,27.422501 
z"/>
<path fill="#0193D5" opacity="1.000000" stroke="none" 
	d="
M80.177139,34.883446 
	C79.929840,32.207653 79.972610,29.519690 80.028717,26.379784 
	C80.368103,28.327248 80.694138,30.726658 81.098854,33.553215 
	C80.940765,34.277332 80.703987,34.574303 80.177139,34.883446 
z"/>
<path fill="#3D6CCA" opacity="1.000000" stroke="none" 
	d="
M15.592827,25.121407 
	C15.891308,25.062635 15.914166,25.280825 15.953306,26.231806 
	C16.013044,28.643599 16.056499,30.322603 15.957682,32.290855 
	C15.522763,32.859207 15.230121,33.138306 14.937477,33.417404 
	C15.064054,30.744392 15.190630,28.071379 15.592827,25.121407 
z"/>
<path fill="#51C5E4" opacity="1.000000" stroke="none" 
	d="
M76.059265,12.867235 
	C76.361061,15.286631 76.662857,17.706026 76.728722,20.582161 
	C76.492790,21.038904 76.119698,21.039585 76.070480,20.637112 
	C76.000603,19.155939 75.979950,18.077244 75.979767,16.586273 
	C76.019913,15.071746 76.039589,13.969491 76.059265,12.867235 
z"/>
<path fill="#4C4F4E" opacity="1.000000" stroke="none" 
	d="
M8.053583,73.239639 
	C8.683026,73.030724 9.269526,73.193245 9.957386,73.993805 
	C10.042299,75.079704 10.025854,75.527573 10.009407,75.975433 
	C9.748894,76.271347 9.488379,76.567261 8.956345,77.001839 
	C8.460096,75.964027 8.235369,74.787560 8.053583,73.239639 
z"/>
<path fill="#061A5F" opacity="1.000000" stroke="none" 
	d="
M88.871399,49.047657 
	C88.443024,49.059017 88.014641,49.070374 87.249908,48.949501 
	C86.913544,48.817268 86.994293,48.526005 87.019676,48.148720 
	C87.080528,47.273724 87.115997,46.776016 87.151459,46.278305 
	C87.879875,46.272266 88.608276,46.266224 89.667343,46.099792 
	C90.036079,46.107456 90.074150,46.275517 89.808304,46.785053 
	C89.317078,47.448032 89.129791,47.769535 88.930237,48.330601 
	C88.917976,48.570164 88.871399,49.047657 88.871399,49.047657 
z"/>
<path fill="#2D292B" opacity="1.000000" stroke="none" 
	d="
M76.171135,87.994446 
	C76.878693,87.991982 77.586258,87.989517 78.647552,87.994827 
	C77.869896,88.657967 76.738510,89.313347 75.250702,89.942863 
	C74.919296,89.741997 74.944328,89.566994 75.122910,88.911079 
	C75.574677,88.284935 75.872910,88.139694 76.171135,87.994446 
z"/>
<path fill="#A1ABB2" opacity="1.000000" stroke="none" 
	d="
M86.292511,40.853668 
	C85.923965,41.203224 85.555420,41.552784 84.724014,41.974606 
	C84.100792,41.479183 83.940437,40.911503 83.780083,40.343819 
	C84.048912,39.691490 84.317741,39.039162 84.860138,38.158226 
	C85.496193,37.950920 85.770782,38.117302 85.992569,38.996105 
	C86.115944,39.993523 86.204231,40.423595 86.292511,40.853668 
z"/>
<path fill="#1FF9FE" opacity="1.000000" stroke="none" 
	d="
M76.016968,12.657213 
	C76.039589,13.969491 76.019913,15.071746 75.771149,16.586681 
	C75.542053,16.999363 75.123444,16.991608 75.059402,16.640160 
	C74.661766,15.513178 74.328163,14.737647 74.001907,13.666330 
	C74.033310,12.979032 74.057373,12.587520 74.370682,12.152792 
	C75.049042,12.088003 75.438164,12.066431 75.827286,12.044858 
	C75.827286,12.044858 75.974670,12.447190 76.016968,12.657213 
z"/>
<path fill="#5E7A7A" opacity="1.000000" stroke="none" 
	d="
M86.502739,40.991692 
	C86.204231,40.423595 86.115944,39.993523 86.062889,39.235054 
	C86.760094,39.632397 87.422073,40.358135 88.071274,41.421043 
	C87.609978,41.548717 87.161476,41.339218 86.502739,40.991692 
z"/>
<path fill="#2264A7" opacity="1.000000" stroke="none" 
	d="
M78.074387,23.627743 
	C77.908936,23.955584 77.689850,23.977167 76.842255,24.017406 
	C75.809036,24.023699 75.404327,24.011337 74.769623,23.996334 
	C74.539612,23.993690 74.079552,23.994184 74.023682,23.792107 
	C73.967812,23.590027 73.957649,23.170832 74.339447,23.098007 
	C74.961990,22.929390 75.202751,22.833599 75.598236,22.796564 
	C75.752960,22.855320 76.083313,22.834591 76.303482,22.726852 
	C76.779167,22.403616 76.970329,22.141230 77.097137,21.831953 
	C77.405006,22.328465 77.712883,22.824974 78.074387,23.627743 
z"/>
<path fill="#A5A7B1" opacity="1.000000" stroke="none" 
	d="
M11.971807,37.832195 
	C11.974349,38.043999 11.976892,38.255798 11.655365,38.832821 
	C10.759369,39.338139 10.187441,39.478241 9.615513,39.618340 
	C9.554773,38.791676 9.494035,37.965008 9.976402,37.138367 
	C11.003609,37.369659 11.487708,37.600925 11.971807,37.832195 
z"/>
<path fill="#8C96CE" opacity="1.000000" stroke="none" 
	d="
M85.898849,65.781517 
	C86.008583,66.680038 86.118317,67.578560 86.387001,68.898216 
	C86.510742,69.647247 86.475533,69.975143 86.210785,70.414299 
	C85.670166,69.329247 85.359077,68.132942 85.277100,66.419586 
	C85.506203,65.902550 85.898849,65.781517 85.898849,65.781517 
z"/>
<path fill="#50E8F5" opacity="1.000000" stroke="none" 
	d="
M25.733515,6.089437 
	C26.041916,6.168433 26.040480,6.554292 26.041168,6.746874 
	C25.570152,7.272067 25.098446,7.604678 24.331406,7.978526 
	C24.022919,7.830142 24.009762,7.640522 23.980270,7.166232 
	C24.450996,6.591190 24.938055,6.300816 25.733515,6.089437 
z"/>
<path fill="#05176F" opacity="1.000000" stroke="none" 
	d="
M8.127609,49.314178 
	C8.076105,49.679119 8.024601,50.044056 7.659162,50.679909 
	C6.966400,50.949635 6.587574,50.948448 6.208749,50.947266 
	C6.166613,50.495968 6.124477,50.044666 6.454374,49.299923 
	C7.260141,49.109043 7.693875,49.211613 8.127609,49.314178 
z"/>
<path fill="#000553" opacity="1.000000" stroke="none" 
	d="
M14.900557,33.479057 
	C15.230121,33.138306 15.522763,32.859207 16.173052,32.294090 
	C16.530699,32.008076 16.961634,32.022911 16.975742,32.391594 
	C16.959566,33.495689 16.929281,34.231110 16.898994,34.966526 
	C16.444193,34.560280 15.989389,34.154030 15.219608,33.713127 
	C14.904630,33.678467 14.863635,33.540710 14.900557,33.479057 
z"/>
<path fill="#F4F5F4" opacity="1.000000" stroke="none" 
	d="
M9.399370,39.928314 
	C10.187441,39.478241 10.759369,39.338139 11.640009,39.150177 
	C11.948722,39.102318 11.986771,39.038799 11.985083,39.267433 
	C11.983394,39.496063 12.013369,39.988937 12.013369,39.988937 
	C12.013369,39.988937 11.886760,40.299011 11.583641,40.525131 
	C11.128439,40.835697 10.976355,40.920147 10.824270,41.004597 
	C10.581181,40.991016 10.338091,40.977436 9.728784,40.968166 
	C9.302786,40.727745 9.243006,40.483017 9.399370,39.928314 
z"/>
<path fill="#F4F5F4" opacity="1.000000" stroke="none" 
	d="
M11.960794,37.517815 
	C11.487708,37.600925 11.003609,37.369659 10.249379,37.062126 
	C10.444475,36.656643 10.909701,36.327423 11.700214,35.972149 
	C12.000262,36.365208 11.975022,36.784325 11.960794,37.517815 
z"/>
<path fill="#0272B8" opacity="1.000000" stroke="none" 
	d="
M6.087235,45.331123 
	C6.154642,44.968262 6.589978,45.012199 6.800782,45.381638 
	C6.991919,46.436909 6.972252,47.122749 6.760894,47.833038 
	C6.569202,47.857491 6.183703,47.885174 6.183703,47.885174 
	C6.129078,47.154778 6.074454,46.424377 6.087235,45.331123 
z"/>
<path fill="#5CE5F6" opacity="1.000000" stroke="none" 
	d="
M75.880547,11.767930 
	C75.438164,12.066431 75.049042,12.088003 74.132126,11.974790 
	C73.401520,11.506963 73.198692,11.173923 73.334717,10.880083 
	C74.126923,10.904236 74.580269,10.889189 75.033623,10.874140 
	C75.333687,11.079761 75.633751,11.285381 75.880547,11.767930 
z"/>
<path fill="#00FEFF" opacity="1.000000" stroke="none" 
	d="
M74.944183,10.602591 
	C74.580269,10.889189 74.126923,10.904236 73.344284,10.585961 
	C72.994789,9.857966 72.974586,9.463292 72.990540,9.040302 
	C73.026703,9.011987 73.082138,8.938745 73.082138,8.938745 
	C73.673004,9.402843 74.263870,9.866941 74.944183,10.602591 
z"/>
<path fill="#15214B" opacity="1.000000" stroke="none" 
	d="
M6.222115,51.220009 
	C6.587574,50.948448 6.966400,50.949635 7.628890,50.954796 
	C7.699021,51.355423 7.485488,51.752079 7.054864,52.265640 
	C6.637009,52.085945 6.436245,51.789349 6.222115,51.220009 
z"/>
<path fill="#296DC2" opacity="1.000000" stroke="none" 
	d="
M77.069214,21.611824 
	C76.970329,22.141230 76.779167,22.403616 76.265182,22.468956 
	C75.984863,22.145424 75.963028,21.972046 75.984528,21.608597 
	C76.027878,21.418524 76.119698,21.039585 76.119698,21.039585 
	C76.119698,21.039585 76.492790,21.038904 76.677353,21.012342 
	C76.861916,20.985781 77.041283,21.391697 77.069214,21.611824 
z"/>
<path fill="#423F43" opacity="1.000000" stroke="none" 
	d="
M17.910215,88.281883 
	C18.207342,88.098953 18.482508,88.244858 18.838503,88.678818 
	C18.624340,88.756393 18.280645,88.637672 17.910215,88.281883 
z"/>
<path fill="#43EFFA" opacity="1.000000" stroke="none" 
	d="
M71.996025,7.154842 
	C72.333549,7.540032 72.671082,7.925221 73.045372,8.624578 
	C73.082138,8.938745 73.026703,9.011987 72.764343,9.021629 
	C72.501991,9.031272 72.049385,8.996887 72.049385,8.996887 
	C72.049385,8.996887 72.023376,9.001148 72.009949,8.689399 
	C71.996361,7.970047 71.996193,7.562445 71.996025,7.154842 
z"/>
<path fill="#50E8F5" opacity="1.000000" stroke="none" 
	d="
M71.747490,7.087684 
	C71.996193,7.562445 71.996361,7.970047 71.998657,8.683125 
	C71.688553,8.558306 71.376312,8.128011 71.032043,7.422726 
	C71.166336,7.105333 71.332642,7.062929 71.747490,7.087684 
z"/>
<path fill="#284CC9" opacity="1.000000" stroke="none" 
	d="
M89.050758,43.636353 
	C88.747025,43.473549 88.408318,43.016262 88.096268,42.259190 
	C88.420555,42.420223 88.718170,42.881042 89.050758,43.636353 
z"/>
<path fill="#072E9B" opacity="1.000000" stroke="none" 
	d="
M6.141812,48.142654 
	C6.183703,47.885174 6.569202,47.857491 7.018416,47.890228 
	C7.641337,47.900303 7.815043,47.877644 8.011170,48.156605 
	C8.048851,48.659283 8.064109,48.860340 8.079366,49.061398 
	C8.079366,49.061398 8.152308,49.175953 8.139958,49.245064 
	C7.693875,49.211613 7.260141,49.109043 6.495816,48.962120 
	C6.143458,48.745220 6.121690,48.572674 6.141812,48.142654 
z"/>
<path fill="#092482" opacity="1.000000" stroke="none" 
	d="
M89.002708,49.227917 
	C88.871399,49.047657 88.917976,48.570164 89.167397,48.292061 
	C89.416817,48.013954 89.891617,47.949074 89.891617,47.949074 
	C89.913467,48.385910 89.935326,48.822742 89.906631,49.584297 
	C89.566818,49.812134 89.326126,49.645187 89.002708,49.227917 
z"/>
<path fill="#13399B" opacity="1.000000" stroke="none" 
	d="
M89.946396,47.703384 
	C89.891617,47.949074 89.416817,48.013954 89.179657,48.052498 
	C89.129791,47.769535 89.317078,47.448032 89.774796,47.041351 
	C90.030525,47.123352 90.015846,47.290524 89.946396,47.703384 
z"/>
<path fill="#A8A8A8" opacity="1.000000" stroke="none" 
	d="
M8.181092,54.380238 
	C8.497095,54.180801 8.719584,54.365612 8.878553,54.874756 
	C8.900424,55.096298 8.691001,55.318577 8.559328,55.241272 
	C8.342758,54.996536 8.257862,54.829113 8.181092,54.380238 
z"/>
<path fill="#B1B3B9" opacity="1.000000" stroke="none" 
	d="
M13.257418,75.028366 
	C12.638628,70.892830 12.356009,66.917046 12.465750,62.589062 
	C15.684236,68.130775 16.904985,68.386024 23.303154,64.812645 
	C24.357302,64.223907 25.759521,64.258392 27.286636,64.266861 
	C30.378422,65.018135 33.184452,65.507401 36.361198,65.999329 
	C38.025463,66.294724 39.319016,66.587463 40.884632,66.941772 
	C40.066948,68.658340 39.538467,69.767776 38.615250,70.922386 
	C36.142426,71.280052 33.283394,70.254311 32.880493,74.036819 
	C31.732405,74.097862 30.865664,74.041672 29.929256,73.656342 
	C29.218498,73.007332 28.577404,72.687462 27.936310,72.367584 
	C27.623436,73.245697 27.310558,74.123817 26.732124,75.140244 
	C25.948811,76.257050 25.431053,77.235542 24.913296,78.214027 
	C20.832893,78.354469 16.606815,79.039864 13.257418,75.028366 
z"/>
<path fill="#93969F" opacity="1.000000" stroke="none" 
	d="
M82.992218,72.994324 
	C82.410065,73.771835 81.827911,74.549339 81.115250,75.585861 
	C77.933372,76.839088 74.934875,78.406822 71.818321,78.694191 
	C67.045906,79.134262 62.192120,78.691948 57.186848,78.141037 
	C58.642765,76.666992 60.284710,75.676071 61.929150,74.404793 
	C62.012047,73.758881 62.092442,73.393326 62.447670,73.048317 
	C63.810886,72.704529 64.899277,72.340195 66.321671,71.981743 
	C67.101036,71.994576 67.546402,72.001534 68.091278,72.154556 
	C68.466850,72.205894 68.742928,72.111176 69.390648,71.949753 
	C70.516426,69.600739 71.270554,67.318436 72.270912,65.029968 
	C72.517136,65.023811 73.009415,65.006195 73.009415,65.006195 
	C76.359497,65.446533 77.971634,63.716976 79.021996,60.707249 
	C79.718597,58.711193 81.126648,56.963428 82.600174,55.508289 
	C82.986832,61.606152 82.989525,67.300240 82.992218,72.994324 
z"/>
<path fill="#090301" opacity="1.000000" stroke="none" 
	d="
M76.131088,87.690361 
	C75.872910,88.139694 75.574677,88.284935 75.153786,88.647697 
	C56.991497,88.860306 38.951866,88.855392 20.453785,88.960052 
	C20.032259,85.244850 22.962673,86.141258 25.078161,86.133430 
	C41.727516,86.071838 58.377216,86.104362 75.489914,86.140961 
	C75.999023,86.578102 76.045036,86.982185 76.131088,87.690361 
z"/>
<path fill="#A6A8AF" opacity="1.000000" stroke="none" 
	d="
M25.358086,78.391586 
	C25.431053,77.235542 25.948811,76.257050 27.027996,75.018166 
	C28.392591,74.500343 29.195757,74.242912 29.998920,73.985489 
	C30.865664,74.041672 31.732405,74.097862 33.057327,74.122086 
	C33.772663,74.209747 33.931236,74.408150 34.201294,75.009018 
	C35.934597,75.583443 37.457832,75.834175 38.984730,76.368561 
	C38.968964,77.211067 38.949535,77.769913 38.930107,78.328758 
	C34.554359,78.408890 30.178617,78.489014 25.358086,78.391586 
z"/>
<path fill="#9EA0A8" opacity="1.000000" stroke="none" 
	d="
M39.378128,78.485413 
	C38.949535,77.769913 38.968964,77.211067 39.450085,76.333572 
	C43.005306,76.012650 46.126209,75.767860 49.180550,76.112694 
	C50.657627,76.279465 52.009663,77.553749 53.418316,78.326584 
	C48.887592,78.431740 44.356869,78.536903 39.378128,78.485413 
z"/>
<path fill="#7A797D" opacity="1.000000" stroke="none" 
	d="
M53.730888,78.323044 
	C52.009663,77.553749 50.657627,76.279465 49.180550,76.112694 
	C46.126209,75.767860 43.005306,76.012650 39.446423,76.049919 
	C37.457832,75.834175 35.934597,75.583443 34.667400,75.077057 
	C43.924511,74.775993 52.925579,74.730576 61.926651,74.685150 
	C60.284710,75.676071 58.642765,76.666992 56.772728,77.999863 
	C55.710907,78.334366 54.877186,78.326935 53.730888,78.323044 
z"/>
<path fill="#353837" opacity="1.000000" stroke="none" 
	d="
M10.316822,75.933182 
	C10.025854,75.527573 10.042299,75.079704 10.034811,74.296173 
	C10.609643,74.071686 11.208409,74.182854 11.937679,74.574829 
	C11.586867,75.200729 11.105552,75.545830 10.316822,75.933182 
z"/>
<path fill="#A3A5AD" opacity="1.000000" stroke="none" 
	d="
M76.002808,46.036850 
	C73.985100,47.044613 71.967400,48.052380 69.894135,49.087898 
	C69.894135,52.517231 69.894135,56.378849 69.570305,60.605827 
	C68.306313,60.228695 66.900665,59.675251 66.508705,58.710121 
	C65.021805,55.048904 62.732624,55.414165 59.668552,56.998825 
	C58.888069,56.999466 58.442093,56.999565 57.996712,56.624859 
	C57.996620,55.500443 57.995930,54.750832 58.325829,53.936180 
	C59.103497,52.943573 59.550575,52.016006 60.207626,50.960411 
	C60.708004,50.633377 60.869923,50.358654 61.269249,49.954491 
	C64.437088,48.226776 67.239044,46.552776 70.416130,44.950264 
	C72.528442,45.360111 74.265625,45.698479 76.002808,46.036850 
z"/>
<path fill="#9DA0A8" opacity="1.000000" stroke="none" 
	d="
M60.003059,56.998287 
	C62.732624,55.414165 65.021805,55.048904 66.508705,58.710121 
	C66.900665,59.675251 68.306313,60.228695 69.621864,60.985229 
	C70.912895,62.138676 71.828529,63.278080 72.876785,64.711838 
	C73.009415,65.006195 72.517136,65.023811 71.975342,64.995178 
	C68.279762,64.635269 65.125977,64.303986 61.981491,63.600281 
	C61.836807,60.989052 63.982117,58.016582 60.003059,56.998287 
z"/>
<path fill="#6E717B" opacity="1.000000" stroke="none" 
	d="
M76.177582,45.700386 
	C74.265625,45.698479 72.528442,45.360111 70.390114,44.698971 
	C69.974487,44.207848 69.960007,44.039494 70.134048,43.600388 
	C71.254547,42.242306 72.186523,41.154968 73.389343,39.870506 
	C73.816277,38.799282 73.972359,37.925186 74.486893,37.039173 
	C75.561172,36.986362 76.276993,36.945469 77.233192,36.945511 
	C77.473564,36.986446 77.960342,37.015896 77.960342,37.015896 
	C77.424347,39.798573 76.888351,42.581249 76.177582,45.700386 
z"/>
<path fill="#0E46AE" opacity="1.000000" stroke="none" 
	d="
M76.992821,36.904572 
	C76.276993,36.945469 75.561172,36.986362 74.438507,36.656410 
	C73.966370,35.518124 73.901062,34.750679 73.891953,33.585037 
	C73.912895,32.117081 73.877647,31.047323 73.896744,29.580286 
	C73.913498,28.117075 73.875900,27.051146 73.916061,25.736694 
	C74.045517,25.322447 74.097214,25.156721 74.330429,24.862690 
	C74.736343,24.530266 74.898903,24.285130 74.999626,23.998976 
	C75.404327,24.011337 75.809036,24.023699 76.513603,24.049610 
	C77.006775,26.867853 77.200081,29.672546 77.675766,32.949127 
	C77.958145,33.421013 78.012192,33.723331 78.012192,33.723331 
	C77.945908,34.206779 77.879616,34.690224 77.654236,35.671364 
	C77.269096,36.374210 77.101662,36.619381 76.992821,36.904572 
z"/>
<path fill="#737478" opacity="1.000000" stroke="none" 
	d="
M83.296158,72.974945 
	C82.989525,67.300240 82.986832,61.606152 82.951874,55.442055 
	C82.919617,54.972046 83.401154,54.962852 83.636955,55.011623 
	C83.945648,60.697636 84.018547,66.334877 84.148354,72.429306 
	C84.003540,72.909515 83.801819,72.932541 83.296158,72.974945 
z"/>
<path fill="#0C1332" opacity="1.000000" stroke="none" 
	d="
M86.994293,48.526005 
	C86.994293,48.526005 86.913544,48.817268 86.929062,48.969025 
	C86.982292,50.465378 87.020012,51.809978 87.094223,53.555908 
	C86.322746,53.940536 85.514755,53.923828 84.369499,53.874237 
	C83.833916,52.831749 83.635597,51.822140 83.785645,50.335762 
	C84.426529,49.369209 84.719055,48.879425 85.344421,48.348259 
	C86.116272,48.379921 86.555283,48.452965 86.994293,48.526005 
z"/>
<path fill="#0045FF" opacity="1.000000" stroke="none" 
	d="
M78.233566,33.735176 
	C78.012192,33.723331 77.958145,33.421013 77.925858,33.272285 
	C77.992767,31.555746 78.091965,29.987930 78.324493,27.968140 
	C78.457825,27.516165 78.473083,27.447845 78.473083,27.447845 
	C78.640961,29.249060 78.808838,31.050276 78.937485,33.303146 
	C78.898254,33.754803 78.454941,33.747021 78.233566,33.735176 
z"/>
<path fill="#787A82" opacity="1.000000" stroke="none" 
	d="
M83.537598,40.553787 
	C83.940437,40.911503 84.100792,41.479183 84.472443,42.263268 
	C84.683731,42.479664 84.744072,42.734932 84.586273,42.983276 
	C84.209824,43.443604 84.037216,43.688118 83.712021,43.987091 
	C83.513382,44.009014 83.118095,44.068180 83.118095,44.068180 
	C83.177101,42.966705 83.236107,41.865231 83.537598,40.553787 
z"/>
<path fill="#061A5F" opacity="1.000000" stroke="none" 
	d="
M85.011589,48.389641 
	C84.719055,48.879425 84.426529,49.369209 83.847961,49.952309 
	C83.465515,49.581165 83.369110,49.116703 83.477081,48.363556 
	C83.681465,48.074875 84.038055,47.930676 84.293282,47.925171 
	C84.716919,47.893589 84.885330,47.867504 85.058701,47.979668 
	C85.063652,48.117912 85.011589,48.389641 85.011589,48.389641 
z"/>
<path fill="#475787" opacity="1.000000" stroke="none" 
	d="
M84.038055,47.930676 
	C84.038055,47.930676 83.681465,48.074875 83.494965,48.119610 
	C83.221123,47.072758 83.133781,45.981171 83.082268,44.478882 
	C83.118095,44.068180 83.513382,44.009014 83.737511,44.347969 
	C83.995888,45.408875 84.030144,46.130825 84.043961,47.121910 
	C84.028374,47.570923 84.033218,47.750801 84.038055,47.930676 
z"/>
<path fill="#296DC2" opacity="1.000000" stroke="none" 
	d="
M77.233192,36.945511 
	C77.101662,36.619381 77.269096,36.374210 77.680595,36.042145 
	C77.912392,36.095955 77.958717,36.276688 77.982697,36.736656 
	C77.960342,37.015896 77.473564,36.986446 77.233192,36.945511 
z"/>
<path fill="#BBBDC2" opacity="1.000000" stroke="none" 
	d="
M27.000881,64.004860 
	C25.759521,64.258392 24.357302,64.223907 23.303154,64.812645 
	C16.904985,68.386024 15.684236,68.130775 12.509768,62.138535 
	C12.101583,59.663219 12.041738,57.286228 11.945946,54.466930 
	C20.767323,60.612408 27.655655,58.778084 32.219250,48.465897 
	C33.042282,48.493652 33.555920,48.754276 34.069275,49.340630 
	C34.711727,50.129398 35.354465,50.592434 35.999039,51.487274 
	C36.049572,55.025997 36.627090,58.006111 31.777683,58.580471 
	C29.996254,58.791462 28.582401,62.105995 27.000881,64.004860 
z"/>
<path fill="#AFB0B4" opacity="1.000000" stroke="none" 
	d="
M19.014856,38.370689 
	C19.751474,37.967247 20.478395,38.001160 21.614033,38.062469 
	C22.022753,38.089863 22.055319,38.003716 22.041187,38.416023 
	C21.697794,41.795937 22.949163,43.187576 26.004137,43.018921 
	C27.658119,42.927608 29.326532,43.097664 31.206997,43.373840 
	C32.114960,44.650753 36.018394,45.179783 31.980591,47.003162 
	C30.332600,47.002228 28.684601,47.003975 27.036617,46.999905 
	C19.401165,46.981052 19.008200,46.579632 19.014856,38.370689 
z"/>
<path fill="#A6A6AB" opacity="1.000000" stroke="none" 
	d="
M31.989456,47.249840 
	C36.018394,45.179783 32.114960,44.650753 31.618103,43.316811 
	C33.191483,43.046577 34.572315,43.057396 35.983841,43.457462 
	C37.353619,44.622955 38.692711,45.399200 40.232834,46.392735 
	C41.311226,47.081844 42.188587,47.553665 42.798515,48.338039 
	C39.710575,48.772026 36.890068,48.893463 34.069561,49.014900 
	C33.555920,48.754276 33.042282,48.493652 32.267036,48.111580 
	C32.005436,47.990135 31.998320,47.496517 31.989456,47.249840 
z"/>
<path fill="#164EB0" opacity="1.000000" stroke="none" 
	d="
M8.471897,49.076485 
	C8.064109,48.860340 8.048851,48.659283 8.017378,47.838650 
	C8.029514,46.792881 8.057864,46.366684 8.086216,45.940491 
	C9.147394,46.274944 10.208572,46.609398 11.791492,47.032684 
	C12.313234,47.121513 12.704766,47.237667 12.704767,47.237667 
	C12.614621,47.736931 12.524476,48.236195 12.224543,48.892132 
	C10.964646,49.063065 9.914538,49.077320 8.471897,49.076485 
z"/>
<path fill="#012485" opacity="1.000000" stroke="none" 
	d="
M16.998821,35.206059 
	C16.929281,34.231110 16.959566,33.495689 16.988087,31.968666 
	C16.964424,29.496130 16.942528,27.815205 16.920631,26.134277 
	C17.262428,29.114321 17.604227,32.094364 17.938034,35.521408 
	C17.652912,35.794136 17.375780,35.619862 16.998821,35.206059 
z"/>
<path fill="#A5A7B1" opacity="1.000000" stroke="none" 
	d="
M11.022787,41.237984 
	C10.976355,40.920147 11.128439,40.835697 11.532810,40.684692 
	C12.170124,41.178139 12.555153,41.738144 12.750396,42.633846 
	C12.560611,42.969543 12.121579,42.965611 12.121579,42.965611 
	C11.821488,42.467533 11.521397,41.969452 11.022787,41.237984 
z"/>
<path fill="#6D85AC" opacity="1.000000" stroke="none" 
	d="
M12.803316,46.843712 
	C12.704766,47.237667 12.313234,47.121513 12.131330,47.026970 
	C11.988567,46.178944 12.027709,45.425457 12.292923,44.325893 
	C12.518994,43.979816 12.900702,44.023701 12.900702,44.023701 
	C12.901090,44.832386 12.901478,45.641068 12.803316,46.843712 
z"/>
<path fill="#A5A7B1" opacity="1.000000" stroke="none" 
	d="
M12.177396,39.898018 
	C12.013369,39.988937 11.983394,39.496063 11.951988,39.250835 
	C12.060863,39.272770 12.201143,39.539932 12.177396,39.898018 
z"/>
<path fill="#8E929B" opacity="1.000000" stroke="none" 
	d="
M12.938421,43.769508 
	C12.900702,44.023701 12.518994,43.979816 12.330486,43.949341 
	C12.141979,43.918861 12.091227,43.443443 12.106403,43.204529 
	C12.121579,42.965611 12.560611,42.969543 12.779526,42.985695 
	C12.991006,43.173004 12.983573,43.344162 12.938421,43.769508 
z"/>
<path fill="#32E4F5" opacity="1.000000" stroke="none" 
	d="
M71.767944,9.272606 
	C72.049385,8.996887 72.501991,9.031272 72.728180,9.049946 
	C72.974586,9.463292 72.994789,9.857966 73.005432,10.546761 
	C73.198692,11.173923 73.401520,11.506963 73.842896,12.018005 
	C74.057373,12.587520 74.033310,12.979032 73.967087,14.068827 
	C73.873100,15.837155 73.821274,16.907202 73.329094,17.983639 
	C69.592117,17.993963 66.295494,17.997898 62.613472,17.991043 
	C59.487019,17.319204 56.745964,16.658154 53.955406,15.633036 
	C53.603203,13.836727 53.300495,12.404485 52.997791,10.972242 
	C59.160694,10.497603 65.323593,10.022964 71.767944,9.272606 
z"/>
<path fill="#3DE9F7" opacity="1.000000" stroke="none" 
	d="
M52.530422,10.969103 
	C53.300495,12.404485 53.603203,13.836727 53.619171,15.634800 
	C52.884258,16.003601 52.436085,16.006571 51.560684,16.008114 
	C49.422100,16.004484 47.710747,16.002281 45.646847,15.843472 
	C42.196102,15.123491 39.097897,14.560117 35.999695,13.996741 
	C36.000145,13.240777 36.000595,12.484813 36.002441,11.350056 
	C41.356911,10.969496 46.709980,10.967730 52.530422,10.969103 
z"/>
<path fill="#82E8F7" opacity="1.000000" stroke="none" 
	d="
M27.874306,15.944946 
	C28.655293,15.961905 29.436277,15.978864 30.668709,16.322643 
	C32.087593,16.449015 33.055031,16.248568 34.022469,16.048120 
	C34.022469,16.048120 34.002670,16.004984 34.321499,16.012838 
	C35.080494,16.044792 35.520660,16.068890 35.981110,16.440918 
	C37.334610,18.838633 38.667820,20.888418 39.753380,22.968258 
	C39.505726,22.998308 39.009460,23.046669 38.591980,23.029312 
	C36.781708,22.984436 35.388912,22.956915 33.942520,22.584793 
	C31.923834,20.485626 29.958748,18.731064 27.970917,16.717793 
	C27.923548,16.287703 27.898928,16.116323 27.874306,15.944946 
z"/>
<path fill="#51EAF8" opacity="1.000000" stroke="none" 
	d="
M35.960827,16.092989 
	C35.520660,16.068890 35.080494,16.044792 34.310581,15.991768 
	C34.446621,15.343626 34.912407,14.724409 35.688942,14.050966 
	C39.097897,14.560117 42.196102,15.123491 45.646141,16.095470 
	C45.997326,16.672077 45.996677,16.840076 45.594124,17.006046 
	C43.119076,16.680866 41.045933,16.357719 38.596519,16.031231 
	C37.467113,16.049591 36.713970,16.071291 35.960827,16.092989 
z"/>
<path fill="#51EAF8" opacity="1.000000" stroke="none" 
	d="
M27.543354,15.904182 
	C27.898928,16.116323 27.923548,16.287703 27.555336,16.713524 
	C25.776234,16.978216 24.389961,16.988466 22.841747,16.780346 
	C22.180489,16.394999 21.681171,16.228022 21.181856,16.061045 
	C21.147755,15.580593 21.113651,15.100142 21.058456,14.258018 
	C23.095711,14.552038 25.154057,15.207728 27.543354,15.904182 
z"/>
<path fill="#72EAF9" opacity="1.000000" stroke="none" 
	d="
M33.644638,16.022808 
	C33.055031,16.248568 32.087593,16.449015 31.058693,16.329199 
	C31.753757,16.005121 32.510284,16.001308 33.644638,16.022808 
z"/>
<path fill="#F0F0E7" opacity="1.000000" stroke="none" 
	d="
M9.061807,55.421024 
	C9.102509,55.218399 9.271673,55.135078 9.723359,55.066608 
	C9.734011,55.234413 9.462140,55.387371 9.061807,55.421024 
z"/>
<path fill="#61DAF5" opacity="1.000000" stroke="none" 
	d="
M24.017651,32.937580 
	C23.632343,31.461353 23.247034,29.985126 23.358124,28.068462 
	C26.921942,27.080996 29.989363,26.533964 33.286663,25.999815 
	C33.516544,26.012697 33.976501,26.034851 34.079487,26.178097 
	C34.466507,26.236576 34.750538,26.151808 35.431862,26.061625 
	C36.888569,26.039877 37.947994,26.023546 39.423409,26.012802 
	C41.227711,26.015968 42.616020,26.013546 44.432606,26.019844 
	C46.576488,25.989101 48.292103,25.949635 50.255199,25.944271 
	C50.502686,25.978376 50.997520,26.047579 50.902744,26.402103 
	C49.391945,27.274813 47.813896,27.553825 46.602684,28.374342 
	C45.223221,29.308836 44.171074,30.726494 42.525299,31.953613 
	C39.055294,32.014549 36.036655,32.056023 32.638397,32.227989 
	C29.511738,32.551521 26.764694,32.744553 24.017651,32.937580 
z"/>
<path fill="#90E6F7" opacity="1.000000" stroke="none" 
	d="
M33.056782,25.986933 
	C29.989363,26.533964 26.921942,27.080996 23.496025,27.777809 
	C22.788559,27.156561 22.439590,26.385532 22.345474,24.984797 
	C22.734779,21.902966 22.869234,19.450842 23.003691,16.998718 
	C24.389961,16.988466 25.776234,16.978216 27.578083,16.972233 
	C29.958748,18.731064 31.923834,20.485626 33.693436,22.811735 
	C33.350891,24.251165 33.203835,25.119049 33.056782,25.986933 
z"/>
<path fill="#25C6F0" opacity="1.000000" stroke="none" 
	d="
M23.705856,33.131435 
	C26.764694,32.744553 29.511738,32.551521 32.648838,32.583210 
	C34.031223,33.540615 35.023548,34.273296 35.909611,35.378403 
	C31.220669,36.501785 26.637995,37.252750 22.055319,38.003716 
	C22.055319,38.003716 22.022753,38.089863 21.976662,38.093437 
	C22.418400,36.506439 22.906231,34.915863 23.705856,33.131435 
z"/>
<path fill="#72EAF9" opacity="1.000000" stroke="none" 
	d="
M22.841747,16.780346 
	C22.869234,19.450842 22.734779,21.902966 22.361427,24.662766 
	C21.849047,24.258450 21.575562,23.546457 21.125647,22.131386 
	C20.968300,19.630699 20.987383,17.833090 21.006464,16.035482 
	C21.006464,16.035482 21.089865,16.069704 21.135860,16.065374 
	C21.681171,16.228022 22.180489,16.394999 22.841747,16.780346 
z"/>
<path fill="#00CEB5" opacity="1.000000" stroke="none" 
	d="
M20.699987,16.286348 
	C20.987383,17.833090 20.968300,19.630699 20.958611,21.893032 
	C20.968004,22.357758 20.498367,22.324999 20.262882,22.317764 
	C20.149435,20.386091 20.271473,18.461653 20.699987,16.286348 
z"/>
<path fill="#000073" opacity="1.000000" stroke="none" 
	d="
M16.716316,26.146818 
	C16.942528,27.815205 16.964424,29.496130 16.973976,31.599983 
	C16.961634,32.022911 16.530699,32.008076 16.315327,32.004841 
	C16.056499,30.322603 16.013044,28.643599 16.036434,26.550211 
	C16.103279,26.135826 16.512001,26.159359 16.716316,26.146818 
z"/>
<path fill="#90CBD6" opacity="1.000000" stroke="none" 
	d="
M85.954178,65.605507 
	C85.898849,65.781517 85.506203,65.902550 85.305313,65.942261 
	C85.092598,64.293381 85.080772,62.604778 85.336838,60.484650 
	C85.604729,60.053123 86.081337,60.065609 86.053253,60.479370 
	C86.042336,62.284306 86.059509,63.675484 86.076675,65.066658 
	C86.076675,65.066658 86.009514,65.429497 85.954178,65.605507 
z"/>
<path fill="#AFD5DB" opacity="1.000000" stroke="none" 
	d="
M86.081337,60.065609 
	C86.081337,60.065609 85.604729,60.053123 85.367477,60.062649 
	C85.491203,59.435352 85.852188,58.798534 86.431763,58.233688 
	C86.739052,58.590626 86.827766,58.875584 86.714066,59.592777 
	C86.511658,60.025009 86.081337,60.065609 86.081337,60.065609 
z"/>
<path fill="#006AF5" opacity="1.000000" stroke="none" 
	d="
M7.952181,45.746071 
	C8.057864,46.366684 8.029514,46.792881 7.994956,47.537029 
	C7.815043,47.877644 7.641337,47.900303 7.210109,47.865776 
	C6.972252,47.122749 6.991919,46.436909 7.018016,45.407539 
	C7.339551,45.144302 7.604118,45.306850 7.952181,45.746071 
z"/>
<path fill="#265AB6" opacity="1.000000" stroke="none" 
	d="
M84.064400,46.852772 
	C84.030144,46.130825 83.995888,45.408875 83.936150,44.326046 
	C84.037216,43.688118 84.209824,43.443604 84.614655,43.111320 
	C85.458069,43.890667 86.115303,44.790310 86.961998,45.984131 
	C87.115997,46.776016 87.080528,47.273724 87.019676,48.148720 
	C86.555283,48.452965 86.116272,48.379921 85.344421,48.348259 
	C85.011589,48.389641 85.063652,48.117912 84.935341,47.778908 
	C84.598763,47.194527 84.351219,46.998817 84.064400,46.852772 
z"/>
<path fill="#48DEDB" opacity="1.000000" stroke="none" 
	d="
M86.053253,60.479370 
	C86.081337,60.065609 86.511658,60.025009 86.726669,60.040268 
	C86.826942,61.547489 86.712196,63.039452 86.337067,64.799034 
	C86.059509,63.675484 86.042336,62.284306 86.053253,60.479370 
z"/>
<path fill="#0193D5" opacity="1.000000" stroke="none" 
	d="
M78.481888,27.423412 
	C78.473083,27.447845 78.457825,27.516165 78.423782,27.510536 
	C78.389732,27.504908 78.402458,27.459274 78.422188,27.440887 
	C78.441917,27.422503 78.490692,27.398981 78.481888,27.423412 
z"/>
<path fill="#40FFFF" opacity="1.000000" stroke="none" 
	d="
M76.070480,20.637112 
	C76.119698,21.039585 76.027878,21.418524 75.735085,21.558113 
	C75.284935,21.634138 75.127586,21.570574 75.002197,21.132507 
	C75.063934,19.502539 75.093689,18.247074 75.123444,16.991608 
	C75.123444,16.991608 75.542053,16.999363 75.750671,16.998955 
	C75.979950,18.077244 76.000603,19.155939 76.070480,20.637112 
z"/>
<path fill="#8B7CB5" opacity="1.000000" stroke="none" 
	d="
M75.059402,16.640160 
	C75.093689,18.247074 75.063934,19.502539 75.149086,21.430082 
	C75.323837,22.314041 75.383682,22.525925 75.443520,22.737808 
	C75.202751,22.833599 74.961990,22.929390 74.286896,22.664280 
	C73.824844,20.861336 73.797142,19.419292 73.769440,17.977247 
	C73.821274,16.907202 73.873100,15.837155 73.959747,14.364613 
	C74.328163,14.737647 74.661766,15.513178 75.059402,16.640160 
z"/>
<path fill="#35D9F3" opacity="1.000000" stroke="none" 
	d="
M73.329086,17.983639 
	C73.797142,19.419292 73.824844,20.861336 73.905098,22.737106 
	C73.957649,23.170832 73.967812,23.590027 74.009010,24.043604 
	C74.083107,24.661785 74.116005,24.826389 74.148911,24.990993 
	C74.097214,25.156721 74.045517,25.322447 73.534637,25.674683 
	C70.439476,25.570066 67.803497,25.278938 65.094650,24.680693 
	C64.677216,23.870163 64.332657,23.366753 63.982567,22.505430 
	C63.650978,20.765623 63.324921,19.383728 62.998863,18.001831 
	C66.295494,17.997898 69.592117,17.993963 73.329086,17.983639 
z"/>
<path fill="#1554B9" opacity="1.000000" stroke="none" 
	d="
M74.330429,24.862690 
	C74.116005,24.826389 74.083107,24.661785 74.064880,24.245682 
	C74.079552,23.994184 74.539612,23.993690 74.769623,23.996334 
	C74.898903,24.285130 74.736343,24.530266 74.330429,24.862690 
z"/>
<path fill="#0E46AE" opacity="1.000000" stroke="none" 
	d="
M75.598236,22.796564 
	C75.383682,22.525925 75.323837,22.314041 75.117111,21.804585 
	C75.127586,21.570574 75.284935,21.634138 75.691742,21.748184 
	C75.963028,21.972046 75.984863,22.145424 76.045013,22.576696 
	C76.083313,22.834591 75.752960,22.855320 75.598236,22.796564 
z"/>
<path fill="#ADAEB5" opacity="1.000000" stroke="none" 
	d="
M57.995239,54.001221 
	C57.995930,54.750832 57.996620,55.500443 57.714172,56.770271 
	C55.796101,57.711048 54.161160,58.131611 52.526215,58.552174 
	C52.900349,58.683220 53.274479,58.814266 53.648609,58.945312 
	C51.364620,62.702106 49.080627,66.458900 46.466152,70.412399 
	C43.760441,70.698479 41.385212,70.787849 39.009983,70.877213 
	C39.538467,69.767776 40.066948,68.658340 40.884632,66.941772 
	C39.319016,66.587463 38.025463,66.294724 36.415825,65.708435 
	C39.097958,63.672363 42.096169,61.929840 43.838173,60.917412 
	C43.483162,56.808430 43.236221,53.950287 43.369350,51.031776 
	C44.514519,51.021793 45.279613,51.072182 46.179932,51.317162 
	C46.551262,51.732235 46.824772,51.886379 47.542076,51.973846 
	C50.628315,51.693253 53.308151,51.413006 56.003117,51.469475 
	C56.677246,52.537865 57.336243,53.269543 57.995239,54.001221 
z"/>
<path fill="#B7B8BE" opacity="1.000000" stroke="none" 
	d="
M42.989281,51.092140 
	C43.236221,53.950287 43.483162,56.808430 43.838173,60.917412 
	C42.096169,61.929840 39.097958,63.672363 36.045113,65.705780 
	C33.184452,65.507401 30.378422,65.018135 27.286636,64.266861 
	C28.582401,62.105995 29.996254,58.791462 31.777683,58.580471 
	C36.627090,58.006111 36.049572,55.025997 36.434341,51.439659 
	C38.908298,51.004211 40.948792,51.048176 42.989281,51.092140 
z"/>
<path fill="#E9EAEC" opacity="1.000000" stroke="none" 
	d="
M38.615250,70.922379 
	C41.385212,70.787849 43.760441,70.698479 46.860107,70.468819 
	C49.976894,70.349869 52.369240,70.371208 55.153114,70.439545 
	C57.754040,71.333611 59.963440,72.180687 62.172840,73.027771 
	C62.092442,73.393326 62.012047,73.758881 61.929150,74.404793 
	C52.925579,74.730576 43.924511,74.775993 34.457336,74.753372 
	C33.931236,74.408150 33.772663,74.209747 33.338673,74.004852 
	C33.283394,70.254311 36.142426,71.280052 38.615250,70.922379 
z"/>
<path fill="#BBBDC2" opacity="1.000000" stroke="none" 
	d="
M29.929256,73.656342 
	C29.195757,74.242912 28.392591,74.500343 27.293552,74.879852 
	C27.310558,74.123817 27.623436,73.245697 27.936310,72.367584 
	C28.577404,72.687462 29.218498,73.007332 29.929256,73.656342 
z"/>
<path fill="#999CA4" opacity="1.000000" stroke="none" 
	d="
M61.972183,63.972702 
	C65.125977,64.303986 68.279762,64.635269 71.729126,65.001343 
	C71.270554,67.318436 70.516426,69.600739 69.364586,71.716072 
	C68.811172,71.307556 68.655472,71.066010 68.499771,70.824463 
	C68.330437,71.219139 68.161102,71.613815 67.991768,72.008492 
	C67.546402,72.001534 67.101036,71.994576 66.325684,71.587868 
	C65.745399,68.086182 66.310318,64.196701 61.014046,65.705292 
	C61.354065,64.931679 61.663124,64.452187 61.972183,63.972702 
z"/>
<path fill="#9DA0A8" opacity="1.000000" stroke="none" 
	d="
M60.983086,65.999428 
	C66.310318,64.196701 65.745399,68.086182 65.991684,71.581985 
	C64.899277,72.340195 63.810886,72.704529 62.447670,73.048317 
	C59.963440,72.180687 57.754040,71.333611 55.377338,70.135208 
	C57.134388,68.522392 59.058735,67.260910 60.983086,65.999428 
z"/>
<path fill="#9DA0A8" opacity="1.000000" stroke="none" 
	d="
M68.091278,72.154556 
	C68.161102,71.613815 68.330437,71.219139 68.499771,70.824463 
	C68.655472,71.066010 68.811172,71.307556 68.992935,71.782776 
	C68.742928,72.111176 68.466850,72.205894 68.091278,72.154556 
z"/>
<path fill="#A5A7AF" opacity="1.000000" stroke="none" 
	d="
M61.014046,65.705292 
	C59.058735,67.260910 57.134388,68.522392 54.985809,70.088211 
	C52.369240,70.371208 49.976894,70.349869 47.190590,70.272110 
	C49.080627,66.458900 51.364620,62.702106 53.648609,58.945312 
	C53.274479,58.814266 52.900349,58.683220 52.526215,58.552174 
	C54.161160,58.131611 55.796101,57.711048 57.713577,57.145077 
	C58.442093,56.999565 58.888069,56.999466 59.668552,56.998825 
	C63.982117,58.016582 61.836807,60.989052 61.981491,63.600281 
	C61.663124,64.452187 61.354065,64.931679 61.014046,65.705292 
z"/>
<path fill="#7E828C" opacity="1.000000" stroke="none" 
	d="
M69.945526,43.871136 
	C69.960007,44.039494 69.974487,44.207848 70.014984,44.627487 
	C67.239044,46.552776 64.437088,48.226776 60.879868,49.954063 
	C58.071312,49.632645 56.018032,49.257938 53.979385,48.546989 
	C53.990860,47.536232 53.987698,46.861706 54.402283,46.128868 
	C55.804623,46.001774 57.314186,46.318577 57.692020,45.804157 
	C61.198105,41.030575 65.686577,43.303661 69.945526,43.871136 
z"/>
<path fill="#4D4E53" opacity="1.000000" stroke="none" 
	d="
M53.964752,48.883224 
	C56.018032,49.257938 58.071312,49.632645 60.513977,50.007782 
	C60.869923,50.358654 60.708004,50.633377 59.807545,50.917545 
	C58.127651,51.046059 57.057819,51.089409 55.987984,51.132759 
	C53.308151,51.413006 50.628315,51.693253 47.434540,51.744381 
	C46.628635,51.384365 46.336674,51.253468 46.044712,51.122570 
	C45.279613,51.072182 44.514519,51.021793 43.369350,51.031773 
	C40.948792,51.048176 38.908298,51.004211 36.432507,51.007858 
	C35.354465,50.592434 34.711727,50.129398 34.069275,49.340630 
	C36.890068,48.893463 39.710575,48.772026 43.209476,48.337257 
	C47.246830,48.310356 50.605793,48.596790 53.964752,48.883224 
z"/>
<path fill="#A5A7AF" opacity="1.000000" stroke="none" 
	d="
M56.003117,51.469475 
	C57.057819,51.089409 58.127651,51.046059 59.597572,51.045570 
	C59.550575,52.016006 59.103497,52.943573 58.325829,53.936180 
	C57.336243,53.269543 56.677246,52.537865 56.003117,51.469475 
z"/>
<path fill="#1CBEED" opacity="1.000000" stroke="none" 
	d="
M22.041187,38.416023 
	C26.637995,37.252750 31.220669,36.501785 36.323860,35.375725 
	C38.227631,35.002216 39.610889,35.003807 41.307415,35.278122 
	C44.705929,35.700478 47.804749,36.089504 50.871651,35.915642 
	C52.918537,35.799603 54.919991,34.882088 57.273438,34.250893 
	C58.052567,34.113976 58.500034,34.049431 59.406784,33.989815 
	C64.522629,33.990906 69.179192,33.987072 73.835754,33.983234 
	C73.901062,34.750679 73.966370,35.518124 74.080055,36.668327 
	C73.972359,37.925186 73.816277,38.799282 73.106468,39.616665 
	C71.132355,35.797394 67.948051,36.895390 65.331505,37.201675 
	C58.602234,37.989391 51.876728,38.903690 45.212955,40.115219 
	C42.051880,40.689934 39.035229,42.059010 35.953148,43.068214 
	C34.572315,43.057396 33.191483,43.046577 31.399542,43.092789 
	C29.326532,43.097664 27.658119,42.927608 26.004137,43.018921 
	C22.949163,43.187576 21.697794,41.795937 22.041187,38.416023 
z"/>
<path fill="#15B6EA" opacity="1.000000" stroke="none" 
	d="
M35.983841,43.457458 
	C39.035229,42.059010 42.051880,40.689934 45.212955,40.115219 
	C51.876728,38.903690 58.602234,37.989391 65.331505,37.201675 
	C67.948051,36.895390 71.132355,35.797394 72.835617,39.813789 
	C72.186523,41.154968 71.254547,42.242306 70.134048,43.600388 
	C65.686577,43.303661 61.198105,41.030575 57.692020,45.804157 
	C57.314186,46.318577 55.804623,46.001774 53.942909,46.067932 
	C48.721123,46.102024 44.376461,46.138737 40.031799,46.175446 
	C38.692711,45.399200 37.353619,44.622955 35.983841,43.457458 
z"/>
<path fill="#35D0F2" opacity="1.000000" stroke="none" 
	d="
M65.167519,24.987808 
	C67.803497,25.278938 70.439476,25.570066 73.456879,25.923206 
	C73.875900,27.051146 73.913498,28.117075 73.548988,29.533657 
	C68.481606,30.580345 63.816319,31.276379 58.948238,31.729557 
	C58.157021,31.273449 57.568596,31.060196 57.031258,30.522846 
	C57.391525,29.156269 57.700714,28.113785 58.346394,27.044819 
	C59.132450,27.039623 59.582016,27.060909 60.121948,27.213074 
	C60.212318,27.343952 60.636673,27.416742 60.636673,27.416742 
	C60.636673,27.416742 60.958641,27.089216 61.313614,27.054768 
	C62.834896,26.342815 64.001205,25.665312 65.167519,24.987808 
z"/>
<path fill="#28C6EF" opacity="1.000000" stroke="none" 
	d="
M59.151035,31.972410 
	C63.816319,31.276379 68.481606,30.580345 73.494644,29.930939 
	C73.877647,31.047323 73.912895,32.117081 73.891953,33.585037 
	C69.179192,33.987072 64.522629,33.990906 59.430061,33.653450 
	C59.046387,32.865570 59.098709,32.418991 59.151035,31.972410 
z"/>
<path fill="#13399B" opacity="1.000000" stroke="none" 
	d="
M84.043961,47.121910 
	C84.351219,46.998817 84.598763,47.194527 84.930389,47.640663 
	C84.885330,47.867504 84.716919,47.893589 84.293282,47.925171 
	C84.033218,47.750801 84.028374,47.570923 84.043961,47.121910 
z"/>
<path fill="#8E929B" opacity="1.000000" stroke="none" 
	d="
M40.232834,46.392738 
	C44.376461,46.138737 48.721123,46.102024 53.525158,46.126247 
	C53.987698,46.861706 53.990860,47.536232 53.979385,48.546989 
	C50.605793,48.596790 47.246830,48.310356 43.476910,48.024704 
	C42.188587,47.553665 41.311226,47.081844 40.232834,46.392738 
z"/>
<path fill="#40E1F5" opacity="1.000000" stroke="none" 
	d="
M62.613472,17.991043 
	C63.324921,19.383728 63.650978,20.765623 63.567978,22.548229 
	C61.770939,22.923975 60.382961,22.899012 58.921822,22.548389 
	C56.561741,20.151669 54.274826,18.080605 51.987907,16.009541 
	C52.436085,16.006571 52.884258,16.003601 53.668671,15.998867 
	C56.745964,16.658154 59.487019,17.319204 62.613472,17.991043 
z"/>
<path fill="#4FE3F6" opacity="1.000000" stroke="none" 
	d="
M51.560684,16.008116 
	C54.274826,18.080605 56.561741,20.151669 58.551067,22.594276 
	C57.508781,23.018084 56.764088,23.070347 55.618919,23.075281 
	C54.143833,22.991936 53.069229,22.955919 51.946293,22.582420 
	C49.930653,20.499319 47.963341,18.753698 45.996029,17.008078 
	C45.996677,16.840076 45.997326,16.672077 45.998684,16.252075 
	C47.710747,16.002281 49.422100,16.004484 51.560684,16.008116 
z"/>
<path fill="#72EAF9" opacity="1.000000" stroke="none" 
	d="
M35.981110,16.440918 
	C36.713970,16.071291 37.467113,16.049591 38.677120,16.363426 
	C41.420238,18.763075 43.706493,20.827187 45.663868,22.931320 
	C44.895000,23.007360 44.455017,23.043383 43.614735,23.046833 
	C42.143303,22.988909 41.072166,22.963556 40.001030,22.938206 
	C38.667820,20.888418 37.334610,18.838633 35.981110,16.440918 
z"/>
<path fill="#75B1DA" opacity="1.000000" stroke="none" 
	d="
M33.286663,25.999815 
	C33.203835,25.119049 33.350891,24.251165 33.747032,23.156338 
	C35.388912,22.956915 36.781708,22.984436 38.588062,23.397606 
	C39.003555,24.524574 39.005486,25.265894 39.007416,26.007214 
	C37.947994,26.023546 36.888569,26.039877 35.167557,26.042622 
	C34.329479,26.030973 34.152992,26.032911 33.976501,26.034851 
	C33.976501,26.034851 33.516544,26.012697 33.286663,25.999815 
z"/>
<path fill="#69A7D6" opacity="1.000000" stroke="none" 
	d="
M39.423409,26.012802 
	C39.005486,25.265894 39.003555,24.524574 39.005543,23.414963 
	C39.009460,23.046669 39.505726,22.998308 39.753380,22.968258 
	C41.072166,22.963556 42.143303,22.988909 43.609615,23.411686 
	C44.004639,24.543116 44.004486,25.277119 44.004333,26.011124 
	C42.616020,26.013546 41.227711,26.015968 39.423409,26.012802 
z"/>
<path fill="#61E6F7" opacity="1.000000" stroke="none" 
	d="
M45.992748,22.891300 
	C43.706493,20.827187 41.420238,18.763075 39.053383,16.366768 
	C41.045933,16.357719 43.119076,16.680866 45.594124,17.006046 
	C47.963341,18.753698 49.930653,20.499319 51.616325,22.616089 
	C50.894058,23.021908 50.453434,23.056580 49.611656,23.054359 
	C48.137920,22.975410 47.065334,22.933355 45.992748,22.891300 
z"/>
<path fill="#4CD8F4" opacity="1.000000" stroke="none" 
	d="
M58.009903,27.071302 
	C57.700714,28.113785 57.391525,29.156269 56.588249,30.568195 
	C53.026375,31.276606 49.958588,31.615572 46.499771,31.968861 
	C45.064709,31.966839 44.020687,31.950495 42.976662,31.934151 
	C44.171074,30.726494 45.223221,29.308836 46.602684,28.374342 
	C47.813896,27.553825 49.391945,27.274813 51.317833,26.380289 
	C53.211086,26.021818 54.594475,26.039686 56.158669,26.291183 
	C56.896282,26.706978 57.453091,26.889141 58.009903,27.071302 
z"/>
<path fill="#2CB2E2" opacity="1.000000" stroke="none" 
	d="
M42.525299,31.953613 
	C44.020687,31.950495 45.064709,31.966839 46.636154,32.234570 
	C47.431671,33.014156 47.699776,33.542362 47.678337,34.324871 
	C45.257248,34.721252 43.125698,34.863327 40.994144,35.005402 
	C39.610889,35.003807 38.227631,35.002216 36.430126,35.003304 
	C35.023548,34.273296 34.031223,33.540615 33.028454,32.452713 
	C36.036655,32.056023 39.055294,32.014549 42.525299,31.953613 
z"/>
<path fill="#4A94CF" opacity="1.000000" stroke="none" 
	d="
M55.977863,26.057554 
	C54.594475,26.039686 53.211086,26.021818 51.412609,26.025764 
	C50.997520,26.047579 50.502686,25.978376 50.252617,25.592670 
	C50.005970,24.501726 50.009392,23.796490 50.012810,23.091251 
	C50.453434,23.056580 50.894058,23.021908 51.664650,22.953569 
	C53.069229,22.955919 54.143833,22.991936 55.612747,23.440247 
	C55.997318,24.587547 55.987591,25.322550 55.977863,26.057554 
z"/>
<path fill="#5A9DD3" opacity="1.000000" stroke="none" 
	d="
M49.611656,23.054359 
	C50.009392,23.796490 50.005970,24.501726 50.005135,25.558567 
	C48.292103,25.949635 46.576488,25.989101 44.432606,26.019844 
	C44.004486,25.277119 44.004639,24.543116 44.009911,23.444260 
	C44.455017,23.043383 44.895000,23.007360 45.663868,22.931320 
	C47.065334,22.933355 48.137920,22.975410 49.611656,23.054359 
z"/>
<path fill="#6FC9E9" opacity="1.000000" stroke="none" 
	d="
M34.079487,26.178097 
	C34.152992,26.032911 34.329479,26.030973 34.770267,26.048038 
	C34.750538,26.151808 34.466507,26.236576 34.079487,26.178097 
z"/>
<path fill="#398ACB" opacity="1.000000" stroke="none" 
	d="
M56.158669,26.291183 
	C55.987591,25.322550 55.997318,24.587547 56.013222,23.487576 
	C56.764088,23.070347 57.508781,23.018084 58.624229,22.919933 
	C60.382961,22.899012 61.770939,22.923975 63.573509,22.906139 
	C64.332657,23.366753 64.677216,23.870163 65.094650,24.680691 
	C64.001205,25.665312 62.834896,26.342815 61.082180,27.036388 
	C60.495773,27.052456 60.031582,27.082197 60.031582,27.082195 
	C59.582016,27.060909 59.132450,27.039623 58.346394,27.044819 
	C57.453091,26.889141 56.896282,26.706978 56.158669,26.291183 
z"/>
<path fill="#BBBDC2" opacity="1.000000" stroke="none" 
	d="
M46.179932,51.317162 
	C46.336674,51.253468 46.628635,51.384365 47.028133,51.744728 
	C46.824772,51.886379 46.551262,51.732235 46.179932,51.317162 
z"/>
<path fill="#2B79C0" opacity="1.000000" stroke="none" 
	d="
M47.967876,34.070564 
	C47.699776,33.542362 47.431671,33.014156 47.027187,32.220245 
	C49.958588,31.615572 53.026375,31.276606 56.537167,30.892290 
	C57.568596,31.060196 58.157021,31.273449 58.948238,31.729557 
	C59.098709,32.418991 59.046387,32.865570 58.970783,33.648518 
	C58.500034,34.049431 58.052567,34.113976 56.835045,34.171417 
	C53.365955,34.133060 50.666916,34.101814 47.967876,34.070564 
z"/>
<path fill="#25C6F0" opacity="1.000000" stroke="none" 
	d="
M47.678337,34.324875 
	C50.666916,34.101814 53.365955,34.133060 56.503387,34.243782 
	C54.919991,34.882088 52.918537,35.799603 50.871651,35.915642 
	C47.804749,36.089504 44.705929,35.700478 41.307415,35.278122 
	C43.125698,34.863327 45.257248,34.721252 47.678337,34.324875 
z"/>
<path fill="#4CD8F4" opacity="1.000000" stroke="none" 
	d="
M60.121948,27.213074 
	C60.031582,27.082197 60.495773,27.052456 60.727207,27.070835 
	C60.958641,27.089216 60.636673,27.416742 60.636673,27.416742 
	C60.636673,27.416742 60.212318,27.343952 60.121948,27.213074 
z"/>
</svg>